<?xml version="1.0" encoding="UTF-8"?>
<svg id="a" data-name="Layer 1" xmlns="http://www.w3.org/2000/svg" xmlns:xlink="http://www.w3.org/1999/xlink" viewBox="0 0 1000 1000">
  <defs>
    <style>
      .d {
        fill: url(#b);
      }

      .d, .e {
        stroke-width: 0px;
      }

      .e {
        fill: url(#c);
      }
    </style>
    <linearGradient id="b" x1="232.07" y1="468.41" x2="954.69" y2="468.41" gradientTransform="translate(262.44 -169.68) rotate(25.79)" gradientUnits="userSpaceOnUse">
      <stop offset="0" stop-color="#f9b7ba"/>
      <stop offset=".21" stop-color="#ee7272"/>
      <stop offset=".41" stop-color="#a31e22"/>
      <stop offset=".61" stop-color="#6c0d0e"/>
      <stop offset="1" stop-color="#321111"/>
    </linearGradient>
    <linearGradient id="c" x1="310.57" y1="226.57" x2="434.67" y2="226.57" gradientTransform="translate(262.44 -169.68) rotate(25.79)" gradientUnits="userSpaceOnUse">
      <stop offset="0" stop-color="#f9b7ba"/>
      <stop offset=".21" stop-color="#ee7272"/>
      <stop offset=".57" stop-color="#a31e22"/>
      <stop offset=".81" stop-color="#6c0d0e"/>
      <stop offset="1" stop-color="#321111"/>
    </linearGradient>
  </defs>
  <path class="d" d="m751.24,722.56c-53.59,193.67-173.57,282.92-377.82,239.6-25.28-5.36-49.92-13.89-72.74-26.01-80.53-42.78-126.44-102.3-144.89-175.08-1.79-7.07-3.01-14.3-3.84-21.55-10.65-93.01,3.21-179.76,58.13-256,33.58-46.62,80.4-82.52,133.99-103.23,42-16.23,82.92-23.11,121.11-26,12.55-.95,24.86-3.71,36.71-7.96,53.56-19.23,104.9-43.71,148.61-86.34,36.49-35.59,50.67-87.26,42.58-137.59-2.48-15.43-1.99-30.48.61-45.26,3.95-22.39,19.05-41.74,40.83-48.27,9.71-2.91,16.36-1.73,25.92-.16,62.55,16.02,105.26,48.82,86.46,133.59-21.39,94.36-60.95,172.82-156.86,201.93-.2.06-.42.12-.63.17-107.8,24.09-178.51,56.22-144.77,110.99,15.34,26.59,43.13,35.88,80.41,31.99,13.92-1.45,28.03,2.4,39.46,10.49,27.62,19.55,33.31,43.44,13.04,72.49-.46.66-1.04,1.29-1.66,1.79-33.43,26.99-83.76,17.29-147.9-22.4-3.02-1.87-5.91-4.08-8.63-6.36-25.14-21.07-36.84-19.25-34.25,6.9,2.36,23.82,13.91,45.78,30.93,62.61,29.39,29.07,65.94,50.03,112.05,60.14,2.75.6,5.6.89,8.41.92l93.86.96c14.3.15,24.7,13.84,20.88,27.63Z"/>
  <path class="e" d="m415.57,308.58c3.76,6.92,43.23-3.79,74.97-23.34,33.38-20.55,51.39-46.66,60.48-60.12,11.08-16.42,22.86-33.87,27.5-60.34,1.95-11.12,6.1-36.81-6.2-64.21-6.13-13.66-14.58-32.46-34.5-38.18-18.27-5.24-40.46,2.15-50.73,17.68-12.59,19.03-5.39,45.31.05,52.97,11.08,15.59,12.84,19.16,15.46,34.77,2.38,14.16-.99,25.63-2.58,31.02-14.55,49.49-90.13,99.33-84.46,109.75Z"/>
</svg>