<?xml version="1.0" encoding="UTF-8"?>
<svg id="a" data-name="Layer 1" xmlns="http://www.w3.org/2000/svg" xmlns:xlink="http://www.w3.org/1999/xlink" viewBox="0 0 1000 1000">
  <defs>
    <style>
      .d {
        fill: #434343;
        stroke: #434343;
        stroke-miterlimit: 10;
        stroke-width: 2px;
      }

      .e {
        fill: url(#b);
      }

      .e, .f {
        stroke-width: 0px;
      }

      .f {
        fill: url(#c);
      }
    </style>
    <linearGradient id="b" x1="355.86" y1="267.4" x2="744.18" y2="267.4" gradientTransform="translate(242.41 -162.72) rotate(23.94)" gradientUnits="userSpaceOnUse">
      <stop offset="0" stop-color="#f9b7ba"/>
      <stop offset=".21" stop-color="#ee7272"/>
      <stop offset=".41" stop-color="#a31e22"/>
      <stop offset=".61" stop-color="#6c0d0e"/>
      <stop offset="1" stop-color="#321111"/>
    </linearGradient>
    <linearGradient id="c" x1="398.04" y1="137.44" x2="464.73" y2="137.44" gradientTransform="translate(242.41 -162.72) rotate(23.94)" gradientUnits="userSpaceOnUse">
      <stop offset="0" stop-color="#f9b7ba"/>
      <stop offset=".21" stop-color="#ee7272"/>
      <stop offset=".57" stop-color="#a31e22"/>
      <stop offset=".81" stop-color="#6c0d0e"/>
      <stop offset="1" stop-color="#321111"/>
    </linearGradient>
  </defs>
  <path class="d" d="m763.07,482.76c28.07-73.68,34.12-145.81,16.74-216.31-.76-3.09-5.34-2.44-5.21.75,2.02,50.41-.59,98.17-10.34,141.86-27.09,100.95-76.32,162.33-143.12,184.77-20.51,5.38-39.07,9.45-57.65,11.25-64.41,6.25-128.09-22.03-166.66-73.99-11.12-14.99-20.55-31.48-30.32-50.3-28.16-64.61-15.65-142.28,41.05-230.09,25.8-36.43,59.36-70.32,97.96-102.54,2.49-2.07-.14-5.97-2.99-4.43-63.77,34.4-113.09,87.2-148.84,157.29-33.14,62.91-36.23,127.74-6.93,194.65,29.96,54.86,75.92,102.68,83.26,121.71,6.38,13.33-5.5,59.02-25.07,108.53-21.02,53.16-50.91,110.72-76.6,137.34-5.17,5.36-12.41,8.35-19.85,8.07-22.09-.82-57.51-9.78-97.61-21.58-.33-.1-.59.26-.39.54,5.63,7.79,53.26,35.14,109.29,61.53l12.98,5.76c54.49,22.74,104.14,38.85,117.24,39.73.81.05,1.1-1.04.41-1.46-35.03-21.49-64.84-41.43-80.05-57.05-5.2-5.34-7.83-12.7-7.33-20.14,2.51-36.91,25.16-97.68,50.49-148.93,23.59-47.72,49.52-87.18,63.68-91.39,19.04-7.32,85.33-5.3,146.12-19.87,69.28-23.14,115.29-68.92,139.73-135.7Z"/>
  <path class="e" d="m725.29,416.16c-25.43,104.95-88.32,154.96-198.77,135.23-13.67-2.44-27.05-6.6-39.52-12.71-44-21.58-69.68-52.75-80.85-91.53-1.09-3.77-1.86-7.63-2.44-11.51-7.33-49.77-1.39-96.6,26.79-138.5,17.23-25.62,41.75-45.71,70.18-57.76,22.28-9.44,44.13-13.85,64.6-16.06,6.72-.73,13.29-2.42,19.58-4.91,28.43-11.26,55.59-25.29,78.32-48.95,18.98-19.75,25.7-47.74,20.49-74.64-1.6-8.24-1.6-16.33-.45-24.32,1.73-12.09,9.51-22.75,21.09-26.63,5.16-1.73,8.76-1.21,13.92-.54,33.88,7.52,57.38,24.4,48.75,70.26-9.86,51.05-29.74,93.87-80.75,111.17-.11.04-.22.07-.33.1-57.48,14.8-94.9,33.29-75.83,62.12,8.7,14.02,23.79,18.52,43.74,15.79,7.45-1.02,15.1.81,21.38,4.95,15.17,10.02,18.64,22.76,8.26,38.71-.24.36-.54.71-.86.99-17.49,15.08-44.69,10.73-79.82-9.47-1.66-.95-3.24-2.09-4.75-3.27-13.87-10.88-20.12-9.7-18.28,4.3,1.68,12.75,8.26,24.35,17.69,33.09,16.29,15.11,36.28,25.73,61.22,30.36,1.49.28,3.02.38,4.53.35l50.43-1.11c7.69-.17,13.51,7.01,11.69,14.48Z"/>
  <path class="f" d="m537.84,199.63c2.14,3.65,23.15-2.79,39.86-13.83,17.57-11.62,26.8-25.95,31.44-33.34,5.67-9.01,11.69-18.59,13.72-32.88.85-6.01,2.64-19.88-4.44-34.38-3.53-7.23-8.39-17.18-19.19-19.91-9.9-2.5-21.69,1.86-26.94,10.37-6.43,10.44-2.11,24.43.95,28.45,6.22,8.18,7.23,10.07,8.91,18.41,1.52,7.56-.09,13.78-.85,16.7-6.96,26.83-46.69,54.91-43.46,60.41Z"/>
</svg>